Coordinates
version=1
nRows=7
nColumns=63
inDegrees=yes

Units are S.I. units (second, meters, Newtons, ...)
If the header above contains a line with 'inDegrees', this indicates whether rotational values are in degrees (yes) or radians (no).

endheader
time	pelvis_tilt	pelvis_list	pelvis_rotation	pelvis_tx	pelvis_ty	pelvis_tz	hip_flexion_r	hip_adduction_r	hip_rotation_r	knee_angle_r	knee_angle_r_beta	ankle_angle_r	subtalar_angle_r	mtp_angle_r	hip_flexion_l	hip_adduction_l	hip_rotation_l	knee_angle_l	knee_angle_l_beta	ankle_angle_l	subtalar_angle_l	mtp_angle_l	L5_S1_Flex_Ext	L5_S1_Lat_Bending	L5_S1_axial_rotation	L4_L5_Flex_Ext	L4_L5_Lat_Bending	L4_L5_axial_rotation	L3_L4_Flex_Ext	L3_L4_Lat_Bending	L3_L4_axial_rotation	L2_L3_Flex_Ext	L2_L3_Lat_Bending	L2_L3_axial_rotation	L1_L2_Flex_Ext	L1_L2_Lat_Bending	L1_L2_axial_rotation	L1_T12_Flex_Ext	L1_T12_Lat_Bending	L1_T12_axial_rotation	Abs_r3	Abs_r2	Abs_r1	Abs_t1	Abs_t2	neck_flexion	neck_bending	neck_rotation	arm_flex_r	arm_add_r	arm_rot_r	elbow_flex_r	pro_sup_r	wrist_flex_r	wrist_dev_r	arm_flex_l	arm_add_l	arm_rot_l	elbow_flex_l	pro_sup_l	wrist_flex_l	wrist_dev_l
      1.10000000	      5.99788962	     -2.15548370	    105.98381119	      0.00378329	      1.02642605	      0.63149620	     -2.71780105	      4.55430608	      3.31859217	      4.09008701	      0.07138548	     26.45905891	    -13.17323569	      0.00000000	     -1.27417903	     -3.80916362	     19.81675610	      2.19792462	      0.03836102	     27.37857036	    -12.22655826	      0.00000000	      0.15773227	      0.30977798	     -1.79483468	      0.29292461	      0.41200471	     -1.90701184	      0.25913835	      0.75319418	     -1.90701184	      0.18027222	      0.75319418	     -1.57048034	      0.14647019	      0.63169925	     -1.45830317	      0.09012822	      0.47984609	     -1.34612601	      1.12666586	      3.50427045	     -9.98233202	      0.00000000	      0.00000000	     25.74620844	      2.73583697	     -7.17570482	     14.60568650	     -8.19530639	     80.36003399	     32.77777608	      5.55114477	      1.73976697	     -7.50251475	     10.20759846	     -6.42136214	     57.26243363	     38.12574582	     72.38127537	      3.73111481	     -4.82531297
      1.11666667	      5.85115625	     -2.11259674	    105.73212181	      0.00470771	      1.02655935	      0.63035696	     -2.88139455	      4.46701251	      3.93427070	      4.03009981	      0.07033851	     26.40829682	    -13.46430930	      0.00000000	     -1.45992762	     -3.72278969	     19.47241222	      2.15385026	      0.03759178	     27.43928485	    -12.04181077	      0.00000000	      0.15868797	      0.28357986	     -1.75759490	      0.29469943	      0.37716122	     -1.86744458	      0.26070847	      0.68949608	     -1.86744458	      0.18136448	      0.68949608	     -1.53789554	      0.14735765	      0.57827606	     -1.42804586	      0.09067431	      0.43926521	     -1.31819617	      1.13349232	      3.20791212	     -9.77521555	      0.00000000	      0.00000000	     25.89119425	      3.09045151	     -7.10202821	     14.69058171	     -8.05758522	     81.21355770	     32.81309096	      5.00786927	      1.62087243	     -7.02304963	     10.00929277	     -6.60517785	     57.01112054	     38.16167410	     73.31433706	      4.03609453	     -4.77704951
      1.13333333	      5.71031670	     -2.08902156	    105.43953063	      0.00564880	      1.02667708	      0.62937550	     -3.03984464	      4.37038502	      4.67396946	      3.93286297	      0.06864141	     26.21526141	    -13.98563334	      0.00000000	     -1.60985893	     -3.62567951	     18.97022718	      2.14237216	      0.03739145	     27.52781534	    -11.73437151	      0.00000000	      0.15993172	      0.26078668	     -1.70713082	      0.29700919	      0.34684629	     -1.81382649	      0.26275182	      0.63407674	     -1.81382649	      0.18278596	      0.63407674	     -1.49373946	      0.14851259	      0.53179620	     -1.38704379	      0.09138498	      0.40395857	     -1.28034811	      1.14237627	      2.95007110	     -9.49454946	      0.00000000	      0.00000000	     26.18180924	      3.37922540	     -7.03699119	     14.78558821	     -7.97689347	     81.68617534	     32.89749446	      5.00249620	      1.40300799	     -6.72095805	      9.93601948	     -6.76607625	     57.01405834	     38.16578770	     73.90717869	      4.37454192	     -4.61962221
      1.15000000	      5.58016196	     -2.13729509	    105.27565880	      0.00637726	      1.02662688	      0.62858531	     -3.13845112	      4.25585167	      4.92962960	      3.81220893	      0.06653560	     26.04361567	    -14.16327491	      0.00000000	     -1.64690678	     -3.51052977	     18.82661377	      2.16084291	      0.03771382	     27.53856918	    -11.74599890	      0.00000000	      0.17080443	      0.24093574	     -1.68135493	      0.31720090	      0.32044454	     -1.78643961	      0.28061459	      0.58581116	     -1.78643961	      0.19521238	      0.58581116	     -1.47118557	      0.15860899	      0.49131617	     -1.36610088	      0.09759765	      0.37320946	     -1.26101620	      1.22003894	      2.72551330	     -9.35119172	      0.00000000	      0.00000000	     26.56958865	      3.61624950	     -6.93794139	     15.04092026	     -7.96075678	     82.55262062	     33.04678560	      4.94303866	      1.11594264	     -6.87217423	      9.82399715	     -6.88112937	     56.73986769	     38.22444463	     74.66663855	      4.82599346	     -4.21104253
      1.16666667	      5.44167754	     -2.17601793	    105.03965200	      0.00717133	      1.02648769	      0.62784884	     -3.27726110	      4.13292887	      5.39291798	      3.65037934	      0.06371114	     25.75297929	    -14.67532089	      0.00000000	     -1.73624597	     -3.38095723	     19.09849847	      2.11239583	      0.03686826	     27.38173728	    -12.46298008	      0.00000000	      0.18057056	      0.22504770	     -1.62851768	      0.33533759	      0.29931344	     -1.73030003	      0.29665938	      0.54718097	     -1.73030003	      0.20637410	      0.54718097	     -1.42495297	      0.16767782	      0.45891726	     -1.32317061	      0.10317802	      0.34859888	     -1.22138826	      1.28979747	      2.54578455	     -9.05732676	      0.00000000	      0.00000000	     26.92726832	      3.80464112	     -6.70961931	     15.22885955	     -7.99431928	     83.12325567	     33.15253270	      5.25141919	      0.93354610	     -7.07546557	      9.87677844	     -6.98559355	     57.00313933	     38.25347550	     74.68832883	      5.09619851	     -3.91360950
      1.18333333	      5.25887524	     -2.28971644	    104.69046883	      0.00805407	      1.02624995	      0.62720175	     -3.33015952	      3.92494699	      5.55825972	      3.54332855	      0.06184275	     25.61380939	    -14.69815227	      0.00000000	     -1.64702426	     -3.17737907	     17.53872719	      2.31959036	      0.04048449	     27.92341571	    -10.76651139	      0.00000000	      0.19959425	      0.20481683	     -1.57208811	      0.37066649	      0.27240639	     -1.67034362	      0.32791340	      0.49799165	     -1.67034362	      0.22811627	      0.49799165	     -1.37557710	      0.18534322	      0.41766249	     -1.27732159	      0.11404816	      0.31726128	     -1.17906608	      1.42568179	      2.31692899	     -8.74348244	      0.00000000	      0.00000000	     27.21874635	      4.07732700	     -6.29806644	     15.68586206	     -7.97910263	     84.93633282	     33.19072789	      4.61409165	      0.82400125	     -7.65764238	      9.68658820	     -7.01020722	     56.29720142	     38.31919076	     75.68303429	      5.71998340	     -3.43375106
      1.20000000	      5.16246283	     -2.29323630	    104.31733162	      0.00885949	      1.02608930	      0.62645660	     -3.51923087	      3.82839893	      6.18596220	      3.33183665	      0.05815152	     25.16922969	    -15.30282289	      0.00000000	     -1.74217333	     -3.07368915	     17.50382882	      2.34734779	      0.04096895	     27.84792145	    -11.34499453	      0.00000000	      0.20823306	      0.20111984	     -1.49340993	      0.38670961	      0.26748939	     -1.58674805	      0.34210609	      0.48900278	     -1.58674805	      0.23798956	      0.48900278	     -1.30673369	      0.19336522	      0.41012358	     -1.21339557	      0.11898437	      0.31153463	     -1.12005745	      1.48738789	      2.27510785	     -8.30589800	      0.00000000	      0.00000000	     27.37912098	      4.05685726	     -5.83847031	     15.88720057	     -8.08396023	     85.98382984	     33.24223414	      4.66199371	      0.82650174	     -7.95027465	      9.72651136	     -7.04764612	     56.59326127	     38.38761451	     75.32078342	      5.75797693	     -3.08373810
